<svg xmlns="http://www.w3.org/2000/svg" viewBox="0 0 32 32"><defs><style>.cls-3{fill:#039be5}</style></defs><g id="custom_coding"><rect x="1" y="3" width="30" height="26" rx="1" ry="1" style="fill:#ffe082"/><path d="M30 3H2a1 1 0 0 0-1 1v5h30V4a1 1 0 0 0-1-1z" style="fill:#ffb74d"/><path class="cls-3" d="m10.49 22.71-4-4a1 1 0 0 1 0-1.42l4-4a1 1 0 0 1 1.42 1.42L8.62 18l3.29 3.29a1 1 0 0 1-1.42 1.42zM20.09 22.71a1 1 0 0 1 0-1.42L23.38 18l-3.29-3.29a1 1 0 0 1 1.42-1.42l4 4a1 1 0 0 1 0 1.42l-4 4a1 1 0 0 1-1.42 0zM13.63 23.93a1 1 0 0 1-.56-1.3l4-10a1 1 0 0 1 1.86.74l-4 10a1 1 0 0 1-1.3.56z"/></g></svg>